HIERARCHY
ROOT Hips
{
	OFFSET 14.163189 13.148666 7.945349
	CHANNELS 6 Xposition Yposition Zposition Zrotation Yrotation Xrotation
	JOINT LHipJoint
	{
		OFFSET -3.112569 -4.256290 -3.583462
		CHANNELS 3 Zrotation Yrotation Xrotation
		JOINT LeftUpLeg
		{
			OFFSET -4.617091 -13.765049 -6.503381
			CHANNELS 3 Zrotation Yrotation Xrotation
			JOINT LeftLeg
			{
				OFFSET 1.579463 2.720243 -2.523476
				CHANNELS 3 Zrotation Yrotation Xrotation
				JOINT LeftFoot
				{
					OFFSET 14.491033 -3.940879 -10.051031
					CHANNELS 3 Zrotation Yrotation Xrotation
					JOINT LeftToeBase
					{
						OFFSET -1.517977 -3.896008 -14.480274
						CHANNELS 3 Zrotation Yrotation Xrotation
						End Site
						{
							OFFSET 0.000000 0.000000 0.000000
						}
					}
				}
			}
		}
	}
	JOINT RHipJoint
	{
		OFFSET 5.201408 -5.714355 26.088055
		CHANNELS 3 Zrotation Yrotation Xrotation
		JOINT RightUpLeg
		{
			OFFSET -25.756065 -14.480148 45.822437
			CHANNELS 3 Zrotation Yrotation Xrotation
			JOINT RightLeg
			{
				OFFSET 22.924599 -14.459176 -25.223145
				CHANNELS 3 Zrotation Yrotation Xrotation
				JOINT RightFoot
				{
					OFFSET -1.672073 3.492513 24.910275
					CHANNELS 3 Zrotation Yrotation Xrotation
					JOINT RightToeBase
					{
						OFFSET 24.114935 46.754005 45.094875
						CHANNELS 3 Zrotation Yrotation Xrotation
						End Site
						{
							OFFSET 0.000000 0.000000 0.000000
						}
					}
				}
			}
		}
	}
	JOINT LowerBack
	{
		OFFSET 40.503361 30.465973 19.198257
		CHANNELS 3 Zrotation Yrotation Xrotation
		JOINT Spine
		{
			OFFSET 29.856903 33.426388 43.793991
			CHANNELS 3 Zrotation Yrotation Xrotation
			JOINT Spine1
			{
				OFFSET 36.399609 35.110294 44.619202
				CHANNELS 3 Zrotation Yrotation Xrotation
				JOINT Neck
				{
					OFFSET 41.112900 47.064613 51.667690
					CHANNELS 3 Zrotation Yrotation Xrotation
					JOINT Neck1
					{
						OFFSET 33.835327 34.896580 9.413924
						CHANNELS 3 Zrotation Yrotation Xrotation
						JOINT Head
						{
							OFFSET 25.516005 31.772675 16.105915
							CHANNELS 3 Zrotation Yrotation Xrotation
							End Site
							{
								OFFSET 0.000000 0.000000 0.000000
							}
						}
					}
				}
				JOINT LeftShoulder
				{
					OFFSET 28.273888 -9.332151 32.957546
					CHANNELS 3 Zrotation Yrotation Xrotation
					JOINT LeftArm
					{
						OFFSET 45.021233 7.477647 65.946198
						CHANNELS 3 Zrotation Yrotation Xrotation
						JOINT LeftForeArm
						{
							OFFSET 39.442112 59.676529 57.329288
							CHANNELS 3 Zrotation Yrotation Xrotation
							JOINT LeftHand
							{
								OFFSET 28.682301 29.306055 17.505648
								CHANNELS 3 Zrotation Yrotation Xrotation
								JOINT LeftFingerBase
								{
									OFFSET 34.506310 46.467575 56.592594
									CHANNELS 3 Zrotation Yrotation Xrotation
									JOINT LeftHandIndex1
									{
										OFFSET 48.805241 8.953339 -22.415043
										CHANNELS 3 Zrotation Yrotation Xrotation
										End Site
										{
											OFFSET 0.000000 0.000000 0.000000
										}
									}
								}
								JOINT LThumb
								{
									OFFSET 27.520792 7.866117 12.095293
									CHANNELS 3 Zrotation Yrotation Xrotation
									End Site
									{
										OFFSET 0.000000 0.000000 0.000000
									}
								}
							}
						}
					}
				}
				JOINT RightShoulder
				{
					OFFSET 12.908479 10.710455 12.677073
					CHANNELS 3 Zrotation Yrotation Xrotation
					JOINT RightArm
					{
						OFFSET -7.548068 8.597585 -7.678245
						CHANNELS 3 Zrotation Yrotation Xrotation
						JOINT RightForeArm
						{
							OFFSET -22.200432 -6.338178 -10.508860
							CHANNELS 3 Zrotation Yrotation Xrotation
							JOINT RightHand
							{
								OFFSET -9.894324 -2.966406 -5.441902
								CHANNELS 3 Zrotation Yrotation Xrotation
								JOINT RightFingerBase
								{
									OFFSET -2.054240 -6.583667 -9.198849
									CHANNELS 3 Zrotation Yrotation Xrotation
									JOINT RightHandIndex1
									{
										OFFSET -8.268567 -8.448813 -12.924449
										CHANNELS 3 Zrotation Yrotation Xrotation
										End Site
										{
											OFFSET 0.000000 0.000000 0.000000
										}
									}
								}
								JOINT RThumb
								{
									OFFSET -4.253601 2.923511 16.639395
									CHANNELS 3 Zrotation Yrotation Xrotation
									End Site
									{
										OFFSET 5.418124 3.908220 1.921077
									}
								}
							}
						}
					}
				}
			}
		}
	}
}
MOTION
Frames: 12
Frame Time: 0.008333
8.134776 18.769335 54.842224 1.269876 14.874761 22.547138 22.945530 7.484783 17.440298 -17.941534 9.914679 35.121838 0.839238 6.413565 37.830448 1.901589 18.506012 18.456554 4.035857 4.161974 184.331802 -164.292557 -90.826141 24.851048 143.916992 32.409367 136.594910 30.468338 23.312336 81.889297 10.855165 52.587399 67.534225 8.357453 50.444199 4.699005 -8.121366 13.981249 120.389366 -2.063672 3.626447 38.751579 66.993736 16.582750 30.326921 15.062901 3.998044 33.196625 4.872198 55.013641 128.104294 32.686142 21.640999 62.046925 77.325050 -29.926830 27.612190 63.456619 564.058472 484.814026 248.820084 260.061401 308.681427 27.215820 64.502319 776.098328 139.575027 363.475769 -469.843018 -7.125000 0.000000 0.000000 605.168518 176.534073 375.878632 28.388788 136.161499 29.926937 58.359276 -8.684019 117.400528 30.408535 64.515129 1.138409 -1.030932 7.862298 106.124832 130.292999 137.839951 118.695839 7.125000 0.000000 0.000000 170.491653 115.962982 274.972626
6.877460 18.439877 42.402058 -1.054835 10.508075 18.936857 19.165863 4.856737 12.706223 -28.994917 0.146050 22.443668 -1.108801 6.918200 43.280273 2.511907 16.794533 12.839151 3.200572 -1.730761 161.906677 -178.501617 -98.523438 9.910279 91.900253 -18.856098 49.634388 13.385898 4.008451 18.865887 -10.123494 -13.928266 -25.711090 -0.423062 19.486473 -100.842583 -32.811768 -8.731752 86.910912 -15.250204 -21.556105 18.244459 48.314785 1.901789 -5.966292 -34.088657 -42.884418 -33.095619 -21.072292 9.186680 66.503311 2.977124 -3.772244 4.973453 16.920248 -91.324173 6.685199 -115.787773 176.215088 -346.270630 -448.429352 -221.097244 -172.677933 -0.065941 3.242171 -147.995300 -333.395294 -397.217041 -1000.930420 -7.125000 0.000000 0.000000 -295.300964 -587.335510 -585.592712 -74.626701 76.115868 15.181181 -18.939430 -76.376938 -27.447140 -31.663155 23.918158 -29.597668 -4.244205 4.725645 66.651085 32.108810 96.667381 15.658990 7.125000 0.000000 0.000000 80.975433 64.913239 192.135529
7.889968 18.920759 60.591137 2.238485 15.528214 23.665501 23.466669 7.932169 17.179571 -16.030313 10.911686 39.011944 3.793132 10.405878 50.570572 5.243062 29.303633 43.922127 6.745051 18.426714 249.195724 -140.031921 -79.864540 40.318840 189.528076 72.994522 195.210068 49.823959 47.704365 158.686920 24.134760 107.713585 130.484482 19.099642 99.054314 186.099289 32.803696 46.892891 176.724976 19.960508 41.879391 85.093735 104.889008 47.052059 93.407440 72.003929 49.307632 117.381004 42.139072 149.441101 245.988449 96.096008 68.853676 147.439362 158.516266 24.697180 45.570782 168.243820 718.378723 755.225037 365.086700 375.613495 416.543976 31.719814 77.528816 925.421814 228.569168 497.840240 -332.415894 -7.125000 0.000000 0.000000 773.250122 352.803406 639.311401 36.026344 153.186768 35.343460 114.674194 67.660706 255.596725 75.398369 94.327667 21.984097 2.752799 11.902912 178.584518 351.378754 233.748703 309.520416 7.125000 0.000000 0.000000 390.564758 198.286240 475.268188
6.650658 18.821136 56.888111 -1.110352 7.710997 13.669676 14.016582 3.233287 10.416499 -31.736729 -7.450095 10.916489 -3.255469 2.853269 24.323132 1.095696 12.691001 35.068321 5.387394 4.556521 187.994781 -171.189392 -95.456665 16.685822 106.505806 -3.153123 67.527832 16.665741 3.079135 -12.457150 -18.775120 -40.456203 -93.946617 -7.051111 0.051583 -164.048874 -45.900719 -17.501471 74.973656 -21.620752 -41.364540 4.551744 34.427059 -4.307334 -21.436577 -35.458961 -43.768421 -39.677116 -26.586712 -6.678356 33.546741 -16.667089 -14.102575 -8.889431 12.091042 -86.272972 12.543004 -34.160835 320.511932 -51.662636 -305.746979 -95.938736 -83.312424 7.276222 27.674515 284.379028 -84.106003 -25.874435 -689.608337 -7.125000 0.000000 0.000000 -35.087700 -381.385834 -285.957886 -52.496147 105.672707 20.117258 20.722477 -52.043251 26.764053 -8.772255 44.700958 -15.493012 -1.853545 6.331133 100.763618 128.119843 134.915039 80.018417 7.125000 0.000000 0.000000 30.353783 4.445908 32.338917
6.167849 18.718563 52.692276 -0.915100 9.228064 14.703182 14.554155 2.698536 9.039932 -35.030975 -10.996519 11.290339 -4.638845 0.755365 18.290958 -1.024375 -2.825782 14.220783 3.335565 0.694868 175.250763 -166.356445 -91.429573 26.941645 141.039780 32.907246 130.768311 34.820717 25.495178 90.693069 7.488629 50.977341 43.179199 9.014297 57.778671 56.042461 4.995011 29.759434 148.540161 11.591900 22.135012 65.585396 87.203247 33.138557 52.718327 35.958485 16.699919 48.485981 8.068474 62.545525 124.756348 29.744154 19.739674 48.895912 64.211472 -56.087643 19.603319 2.221535 422.801239 181.560135 -92.783524 56.765774 46.831623 11.478300 35.475143 335.892731 -39.258247 71.983383 -592.846619 -7.125000 0.000000 0.000000 264.377289 -59.198742 102.623909 -5.724704 131.127625 26.619129 69.036514 -13.743938 115.629883 11.047490 54.967903 -6.314714 -1.380071 6.331872 102.008850 89.002502 120.418152 72.245979 7.125000 0.000000 0.000000 133.307404 62.166744 155.406799
4.800339 18.253687 34.484524 -4.277379 3.835217 10.851238 11.415472 1.115768 7.117572 -40.136169 -17.937656 -6.109628 -10.381153 -6.589627 -4.382921 -5.831175 -25.315342 -13.559946 0.534393 -13.892686 115.004257 -193.793198 -105.763306 0.240428 47.112625 -66.253044 -38.496811 -12.015808 -35.727299 -130.517700 -53.268600 -164.784164 -259.144531 -25.010971 -66.802650 -373.572418 -92.691772 -59.399811 0.025350 -53.790970 -108.274963 -64.773087 -22.327047 -50.100811 -132.065613 -132.858154 -121.351173 -134.029938 -63.447556 -89.125084 -75.560204 -71.362617 -54.374016 -89.296982 -70.468010 -176.446747 -19.125149 -249.240494 -47.234421 -653.762268 -716.332031 -362.286682 -376.740356 -11.717264 -13.176531 -339.885284 -375.354034 -474.641968 -1009.675049 -7.125000 0.000000 0.000000 -611.314148 -783.152100 -873.889465 -106.812386 62.735203 7.368114 -50.730392 -133.308014 -107.061630 -75.036140 -0.513937 -49.607838 -6.969463 1.339830 36.463249 -79.535110 48.124847 -81.793640 7.125000 0.000000 0.000000 -81.022469 -54.609695 -89.417000
6.014221 18.512981 47.536003 -0.580046 9.828658 19.042929 18.871040 5.161274 12.276987 -27.269505 -5.194918 20.171986 -1.738680 5.731196 37.209373 3.054941 9.417202 25.691439 4.456068 5.362263 177.135910 -168.983276 -92.217369 23.625822 127.359383 20.217842 108.567703 30.572426 15.463544 57.070385 -3.471760 38.561390 29.367563 8.613645 68.919250 110.660492 9.365888 26.584530 137.309845 5.391981 7.983682 49.076378 76.280205 22.430883 33.239826 20.991066 4.865727 35.667213 1.857573 39.643963 99.866409 15.793849 6.462210 27.987848 44.034073 -72.468002 14.907334 -29.067986 383.380371 190.551926 -89.825264 54.607487 57.892998 7.438794 32.032146 219.285095 -116.305450 -2.545741 -666.283142 -7.125000 0.000000 0.000000 172.756744 -110.521210 -78.013824 -20.822340 121.380005 25.832899 52.878334 -22.858963 102.343903 9.341126 51.497986 -14.528666 -3.788415 3.398171 55.896774 -52.002632 56.213451 -75.276428 7.125000 0.000000 0.000000 -42.029812 -21.671230 17.571590
4.810598 18.064697 33.090508 -3.511222 1.845698 9.737998 9.827928 0.144083 5.100377 -44.261181 -22.894079 -9.931223 -10.994417 -7.269423 -11.121786 -7.659449 -37.613300 -15.707836 0.532400 -14.450504 99.263779 -206.782776 -109.282265 0.176844 53.043320 -52.522972 -27.955139 -0.495940 -21.051252 -64.214752 -37.354534 -79.242950 -141.606064 -10.657392 -3.259250 -157.420715 -53.677059 -28.007408 47.503750 -29.847189 -58.574039 -12.614427 23.730078 -17.730478 -51.641598 -54.109005 -57.363953 -44.445686 -29.255711 -17.008049 34.431847 -25.771292 -25.780893 -35.738552 -21.002781 -122.675545 -0.408060 -138.780106 144.651062 -289.257416 -507.895355 -214.354492 -188.238266 -5.172289 9.423773 -61.894085 -255.513306 -217.823029 -830.413147 -7.125000 0.000000 0.000000 -148.072952 -367.924866 -399.309784 -60.795464 93.488457 16.088093 -8.679939 -89.558861 -53.193050 -73.106659 -4.841507 -52.508717 -7.592103 -0.121483 8.290739 -171.118454 4.694589 -205.427795 7.125000 0.000000 0.000000 -254.346222 -136.559875 -268.422058
7.717716 19.003773 65.184975 3.751055 15.423345 24.400797 23.148689 7.148860 14.915215 -19.708883 1.958833 35.956009 -0.747749 9.149990 43.372585 5.571989 19.140734 45.552185 6.100387 10.026377 205.712112 -163.938736 -89.065910 28.079620 145.077698 33.714123 118.684280 36.645374 22.900490 80.142250 -3.007646 22.306704 -9.578825 5.101561 55.182472 79.642296 5.101217 30.735094 144.348572 9.931538 15.902132 59.908272 83.565163 28.699457 45.703365 38.984104 23.088314 59.899422 13.237392 72.202950 154.757629 40.900974 28.859442 72.653854 77.342758 -44.050800 24.287052 48.950653 537.075562 549.553162 143.726791 240.377930 261.605072 20.852531 64.892296 619.689636 48.048683 146.329681 -550.682251 -7.125000 0.000000 0.000000 421.105164 110.554611 220.171249 2.177706 136.851196 29.066505 74.548431 8.993080 161.130417 24.127121 64.145325 0.102387 -0.849559 6.515263 105.699791 108.438026 140.748856 97.849892 7.125000 0.000000 0.000000 160.428406 65.379639 183.637680
4.356291 17.583803 4.052953 -11.104121 -12.544871 0.137548 2.050231 -3.533255 0.055807 -56.609825 -36.092049 -29.275982 -19.288776 -15.193719 -46.562630 -13.938710 -64.154343 -48.795074 -3.232798 -28.833956 74.946968 -217.387024 -114.617256 -11.781192 15.824663 -83.491310 -73.150261 -10.239641 -34.658363 -115.636826 -51.865318 -131.472687 -210.985458 -20.082972 -46.882347 -354.739563 -98.657959 -67.081009 -16.723454 -58.787704 -116.389046 -71.285400 -33.663284 -64.517372 -164.590530 -152.197525 -136.252487 -165.039886 -76.286125 -122.815941 -109.714035 -103.615807 -81.755714 -129.461197 -114.763527 -198.628387 -25.080591 -305.887451 -188.478943 -803.541931 -908.735840 -487.787109 -490.435883 -21.777060 -33.539524 -677.026978 -547.728516 -689.045837 -1096.082153 -7.125000 0.000000 0.000000 -570.414001 -743.812317 -809.578491 -86.831009 81.771217 13.834291 -24.072441 -90.982925 -31.969707 -55.724636 12.356609 -44.816307 -6.260026 0.104386 12.001868 -164.854828 21.921692 -154.282364 7.125000 0.000000 0.000000 -157.202698 -104.832870 -252.883972
3.879058 17.866663 20.739191 -5.069508 -4.383984 8.594194 9.046316 -0.392706 4.535699 -46.596848 -26.582436 -12.235022 -15.652561 -7.393012 -15.927664 -6.759090 -27.969065 -8.801542 0.931220 -8.719264 134.862656 -192.882263 -101.783867 8.149135 85.030289 -20.708492 29.001907 13.716409 -3.502225 -7.070641 -20.891109 -47.068024 -98.563049 -7.425208 4.156497 -138.109863 -48.921604 -17.286936 66.558479 -22.274258 -46.640808 -0.321225 23.556099 -8.961348 -43.456749 -40.571835 -49.923630 -41.435844 -27.849998 -22.918720 28.001247 -22.134665 -26.674812 -28.536470 -17.232044 -109.068573 3.323525 -95.017456 184.750137 -101.579552 -312.714539 -46.567642 -30.979595 4.534750 30.186646 124.340515 -152.677795 -218.053421 -740.046631 -7.125000 0.000000 0.000000 14.874504 -232.691696 -187.546600 -34.394211 100.910126 17.849455 -0.130470 -73.533051 15.957687 -31.825413 31.749218 -29.403030 -4.276009 2.184326 45.842712 -78.661842 62.465843 -78.601990 7.125000 0.000000 0.000000 -42.197754 -31.492308 -22.001673
5.968383 18.680683 49.999950 -1.386141 0.888328 12.224144 11.735360 1.577101 8.199674 -35.290115 -14.880878 16.495110 -7.739809 2.741432 15.334158 0.712219 10.557372 33.808090 5.016411 8.320483 183.940247 -172.998688 -92.324097 21.049183 126.844162 13.521519 83.159180 30.365768 17.408615 71.899124 1.115821 40.521217 52.665569 10.968946 72.841843 108.744766 6.321159 31.006554 137.727997 6.110556 9.182952 53.073570 64.645966 19.960911 12.660177 4.128707 -18.875956 15.376888 -2.854736 41.398872 117.314049 34.713211 15.066527 57.308292 64.975304 -54.232655 18.123690 -32.300938 275.821747 87.298409 -162.871552 69.522720 91.925407 9.369393 38.298553 208.876831 -65.285324 -98.590149 -612.567444 -7.125000 0.000000 0.000000 315.800690 -20.283836 96.713333 -3.032310 117.583862 23.619293 40.711666 -39.382313 67.846291 -8.710186 50.522308 -12.307081 -2.526571 2.674649 50.320557 -78.568367 65.688431 -66.795265 7.125000 0.000000 0.000000 -57.142956 -47.844357 -63.294285
